<svg xmlns="http://www.w3.org/2000/svg" version="1.1" xmlns:xlink="http://www.w3.org/1999/xlink" width="512" height="512" x="0" y="0" viewBox="0 0 64 64" style="enable-background:new 0 0 512 512" xml:space="preserve" class=""><g><g data-name="Layer 6"><path d="M16.73 7.24a1 1 0 0 0-1 1v3.14a1 1 0 0 0 2 0V8.24a1 1 0 0 0-1-1zM20.5 14a1 1 0 0 0 .71-.29l2.22-2.23A1 1 0 1 0 22 10l-2.23 2.22a1 1 0 0 0 0 1.42 1 1 0 0 0 .73.36zM25.21 15.73h-3.14a1 1 0 0 0 0 2h3.14a1 1 0 0 0 0-2zM22 23.43a1 1 0 0 0 1.41 0 1 1 0 0 0 0-1.41l-2.22-2.23a1 1 0 0 0-1.42 1.42zM16.73 21.07a1 1 0 0 0-1 1v3.14a1 1 0 0 0 2 0v-3.14a1 1 0 0 0-1-1zM12.24 19.79 10 22a1 1 0 0 0 0 1.41 1 1 0 0 0 1.41 0l2.23-2.22a1 1 0 0 0-1.42-1.42zM8.24 17.73h3.14a1 1 0 0 0 0-2H8.24a1 1 0 1 0 0 2zM11.43 10A1 1 0 0 0 10 11.43l2.22 2.23A1 1 0 0 0 13 14a1 1 0 0 0 .71-.29 1 1 0 0 0 0-1.42zM47.27 7.24a1 1 0 0 0-1 1v3.14a1 1 0 1 0 2 0V8.24a1 1 0 0 0-1-1zM51.05 14a1 1 0 0 0 .71-.29L54 11.43A1 1 0 0 0 52.57 10l-2.23 2.22a1 1 0 0 0 0 1.42 1 1 0 0 0 .71.36zM51.62 16.73a1 1 0 0 0 1 1h3.14a1 1 0 0 0 0-2h-3.14a1 1 0 0 0-1 1zM52.57 23.43a1 1 0 0 0 1.41 0A1 1 0 0 0 54 22l-2.22-2.23a1 1 0 1 0-1.42 1.42zM47.27 21.07a1 1 0 0 0-1 1v3.14a1 1 0 0 0 2 0v-3.14a1 1 0 0 0-1-1zM42.79 19.79 40.57 22a1 1 0 0 0 0 1.41 1 1 0 0 0 1.41 0l2.23-2.22a1 1 0 0 0-1.42-1.42zM42.93 16.73a1 1 0 0 0-1-1h-3.14a1 1 0 0 0 0 2h3.14a1 1 0 0 0 1-1zM42 10a1 1 0 0 0-1.41 1.41l2.22 2.23a1 1 0 0 0 .71.29 1 1 0 0 0 .71-.29 1 1 0 0 0 0-1.42zM16.73 37.79a1 1 0 0 0-1 1v3.14a1 1 0 0 0 2 0v-3.14a1 1 0 0 0-1-1zM20.5 44.5a1 1 0 0 0 .71-.29L23.43 42A1 1 0 1 0 22 40.57l-2.23 2.22a1 1 0 0 0 0 1.42 1 1 0 0 0 .73.29zM25.21 46.27h-3.14a1 1 0 0 0 0 2h3.14a1 1 0 0 0 0-2zM21.21 50.34a1 1 0 1 0-1.42 1.42L22 54a1 1 0 0 0 1.41 0 1 1 0 0 0 0-1.41zM16.73 51.62a1 1 0 0 0-1 1v3.14a1 1 0 0 0 2 0v-3.14a1 1 0 0 0-1-1zM12.24 50.34 10 52.57A1 1 0 0 0 10 54a1 1 0 0 0 1.41 0l2.23-2.22a1 1 0 1 0-1.42-1.42zM12.38 47.27a1 1 0 0 0-1-1H8.24a1 1 0 0 0 0 2h3.14a1 1 0 0 0 1-1zM11.43 40.57A1 1 0 0 0 10 42l2.22 2.23a1 1 0 0 0 .71.29 1 1 0 0 0 .71-.29 1 1 0 0 0 0-1.42zM47.27 37.79a1 1 0 0 0-1 1v3.14a1 1 0 0 0 2 0v-3.14a1 1 0 0 0-1-1zM51.05 44.5a1 1 0 0 0 .71-.29L54 42a1 1 0 0 0-1.41-1.41l-2.23 2.22a1 1 0 0 0 0 1.42 1 1 0 0 0 .69.27zM55.76 46.27h-3.14a1 1 0 0 0 0 2h3.14a1 1 0 0 0 0-2zM51.76 50.34a1 1 0 1 0-1.42 1.42L52.57 54A1 1 0 0 0 54 54a1 1 0 0 0 0-1.41zM47.27 51.62a1 1 0 0 0-1 1v3.14a1 1 0 0 0 2 0v-3.14a1 1 0 0 0-1-1zM42.79 50.34l-2.22 2.23a1 1 0 0 0 0 1.41A1 1 0 0 0 42 54l2.23-2.22a1 1 0 1 0-1.42-1.42zM37.79 47.27a1 1 0 0 0 1 1h3.14a1 1 0 0 0 0-2h-3.14a1 1 0 0 0-1 1zM42 40.57A1 1 0 0 0 40.57 42l2.22 2.23a1 1 0 0 0 .71.29 1 1 0 0 0 .71-.29 1 1 0 0 0 0-1.42zM32 25a1 1 0 0 0-1 1v2.21a1 1 0 0 0 2 0V26a1 1 0 0 0-1-1zM34.65 30.35a1 1 0 0 0 .71-.3l1.56-1.56a1 1 0 0 0 0-1.41 1 1 0 0 0-1.41 0L34 28.64a1 1 0 0 0 0 1.41 1 1 0 0 0 .65.3zM38 31h-2.25a1 1 0 0 0 0 2H38a1 1 0 1 0 0-2zM35.51 36.92a1 1 0 0 0 .71.3 1 1 0 0 0 .7-1.71L35.36 34A1 1 0 0 0 34 35.36zM32 34.75a1 1 0 0 0-1 1V38a1 1 0 1 0 2 0v-2.25a1 1 0 0 0-1-1zM28.64 34l-1.56 1.56a1 1 0 0 0 .7 1.71 1 1 0 0 0 .71-.3l1.56-1.56A1 1 0 0 0 28.64 34zM29.25 32a1 1 0 0 0-1-1H26a1 1 0 0 0 0 2h2.21a1 1 0 0 0 1.04-1zM28.49 27.08a1 1 0 0 0-1.41 0 1 1 0 0 0 0 1.41l1.56 1.56a1 1 0 0 0 1.41 0 1 1 0 0 0 0-1.41zM60 25a1 1 0 0 0-1 1v2.21a1 1 0 0 0 2 0V26a1 1 0 0 0-1-1zM60 34.75a1 1 0 0 0-1 1V38a1 1 0 1 0 2 0v-2.25a1 1 0 0 0-1-1zM56.64 34l-1.56 1.56a1 1 0 0 0 .7 1.71 1 1 0 0 0 .71-.3l1.56-1.56A1 1 0 0 0 56.64 34zM53 32a1 1 0 0 0 1 1h2.21a1 1 0 0 0 0-2H54a1 1 0 0 0-1 1zM56.49 27.08a1 1 0 0 0-1.41 0 1 1 0 0 0 0 1.41l1.56 1.56a1 1 0 0 0 1.41 0 1 1 0 0 0 0-1.41zM4 25a1 1 0 0 0-1 1v2.21a1 1 0 0 0 2 0V26a1 1 0 0 0-1-1zM6.65 30.35a1 1 0 0 0 .71-.3l1.56-1.56a1 1 0 0 0 0-1.41 1 1 0 0 0-1.41 0L6 28.64a1 1 0 0 0 0 1.41 1 1 0 0 0 .65.3zM6.75 32a1 1 0 0 0 1 1H10a1 1 0 0 0 0-2H7.75a1 1 0 0 0-1 1zM8.22 37.22a1 1 0 0 0 .7-1.71L7.36 34A1 1 0 0 0 6 35.36l1.56 1.56a1 1 0 0 0 .66.3zM4 34.75a1 1 0 0 0-1 1V38a1 1 0 0 0 2 0v-2.25a1 1 0 0 0-1-1zM38 59h-2.25a1 1 0 0 0 0 2H38a1 1 0 1 0 0-2zM28.25 59H26a1 1 0 1 0 0 2h2.21a1 1 0 0 0 0-2zM28.49 55.08a1 1 0 0 0-1.41 0 1 1 0 0 0 0 1.41l1.56 1.56a1 1 0 0 0 1.41 0 1 1 0 0 0 0-1.41zM32 53a1 1 0 0 0-1 1v2.21a1 1 0 0 0 2 0V54a1 1 0 0 0-1-1zM36.92 56.49a1 1 0 0 0 0-1.41 1 1 0 0 0-1.41 0L34 56.64a1 1 0 0 0 0 1.41 1 1 0 0 0 1.41 0zM35.75 5H38a1 1 0 0 0 0-2h-2.25a1 1 0 0 0 0 2zM35.51 8.92a1 1 0 0 0 .71.3 1 1 0 0 0 .7-1.71L35.36 6A1 1 0 0 0 34 7.36zM32 6.75a1 1 0 0 0-1 1V10a1 1 0 0 0 2 0V7.75a1 1 0 0 0-1-1zM28.64 6l-1.56 1.51a1 1 0 0 0 .7 1.71 1 1 0 0 0 .71-.3l1.56-1.56A1 1 0 0 0 28.64 6zM26 5h2.21a1 1 0 0 0 0-2H26a1 1 0 0 0 0 2z" fill="#ffffff" opacity="1" data-original="#000000"></path></g></g></svg>