<?xml version="1.0" encoding="utf-8"?>
<!-- Generator: Adobe Illustrator 28.0.0, SVG Export Plug-In . SVG Version: 6.00 Build 0)  -->
<svg version="1.1" id="Layer_1" xmlns="http://www.w3.org/2000/svg" xmlns:xlink="http://www.w3.org/1999/xlink" x="0px" y="0px"
	 viewBox="0 0 402 110.3" style="enable-background:new 0 0 402 110.3;" xml:space="preserve">
<style type="text/css">
	.st0{fill:#FFFFFF;}
</style>
<path class="st0" d="M56.8,4.7L6,65.7h45.8l-5.1,40.7l50.8-61H51.8L56.8,4.7z"/>
<path class="st0" d="M169.5,47.2V66h-27.1v25.8H121V15.4h54.2v18.8h-32.8v13C142.4,47.2,169.5,47.2,169.5,47.2z"/>
<path class="st0" d="M204.9,15.4v76.4h-19.6V15.4H204.9z"/>
<path class="st0" d="M237.3,31.9c3,0,6,0.7,8.9,2.1c3,1.3,5.4,3,7.3,5v-5.4h19.6v58.2h-19.6v-9.7c-1.4,3.2-3.6,5.9-6.6,8.1
	s-6.5,3.3-10.7,3.3c-4.3,0-8.4-1.1-12.2-3.3s-6.9-5.6-9.4-10.2c-2.4-4.6-3.5-10.5-3.5-17.4c0-6.5,1.2-12.1,3.5-16.7
	c2.4-4.6,5.6-8,9.6-10.4C228.2,33.1,232.6,31.9,237.3,31.9z M241.4,51.1c-2.8,0-5.2,1.1-7.1,3.4c-1.8,2.3-2.7,5-2.7,8.1
	s1,5.7,2.9,7.9c1.9,2.1,4.4,3.2,7.5,3.2c1.7,0,3.4-0.4,5.1-1.3c1.7-0.9,3.2-2.2,4.4-4c1.3-1.8,1.9-4.1,1.9-7v-5.6
	c-1.7-1.4-3.6-2.5-5.7-3.4C245.7,51.5,243.6,51.1,241.4,51.1z"/>
<path class="st0" d="M303.5,31.9c3.8,0,7.3,0.6,10.5,1.7c3.3,1.1,5.9,2.5,7.9,4.4v15.4c-2-1.2-4.2-2.4-6.7-3.4
	c-2.5-1.1-5.2-1.7-8.1-1.7c-1.8,0-3.5,0.4-4.9,1.1c-1.4,0.7-2.1,1.8-2.1,3.3c0,1.1,0.4,1.9,1.3,2.4c0.8,0.5,2.5,1.1,4.9,1.7l3.5,0.9
	c10.1,2.6,15.2,8,15.2,16.3c0,3.8-1.1,7.2-3.4,10.2c-2.2,2.9-5.1,5.2-8.8,6.8c-3.6,1.6-7.5,2.4-11.6,2.4c-4.3,0-8.4-0.6-12.1-1.8
	c-3.7-1.3-6.9-2.9-9.6-4.7V71.7c2.7,1.7,5.8,3.1,9.2,4.2c3.5,1.1,6.6,1.7,9.4,1.7c2.2,0,3.8-0.3,4.8-0.8c1.1-0.5,1.6-1.5,1.6-2.9
	c0-1.1-0.6-1.9-1.8-2.4c-1.2-0.6-3-1.3-5.2-2.1l-5.8-1.8c-4.3-1.3-7.4-3.3-9.4-6c-2-2.8-3-6.2-3-10.3c0-4,1.1-7.5,3.2-10.4
	c2.1-2.9,5-5.1,8.7-6.7C294.8,32.7,299,31.9,303.5,31.9z"/>
<path class="st0" d="M365.4,31.9c5.9,0,10.8,2,14.5,6c3.8,4,5.7,10,5.7,17.9v35.9H366l-0.1-32.8c0-2.9-0.8-4.9-2.4-6
	c-1.6-1.2-3.4-1.8-5.4-1.8c-2.1,0-3.9,0.6-5.4,1.7c-1.4,1.1-2.7,2.4-3.8,3.9v35.1h-19.6V15.4H349v25.8c1.8-2.5,4-4.7,6.6-6.5
	C358.3,32.8,361.5,31.9,365.4,31.9z"/>
<path class="st0" d="M384.6,15.8v2.4h-2.9v7.4h-2.8v-7.4H376v-2.4C376,15.8,384.6,15.8,384.6,15.8z"/>
<path class="st0" d="M396,15.7v10h-2.8v-4.9l-2,2.3h-0.8l-2-2.3v4.9h-2.8v-10h1l4.2,4.3l4.2-4.3H396z"/>
</svg>
