<svg xmlns="http://www.w3.org/2000/svg" version="1.1" xmlns:xlink="http://www.w3.org/1999/xlink" width="512" height="512" x="0" y="0" viewBox="0 0 64 64" style="enable-background:new 0 0 512 512" xml:space="preserve" class=""><g><path d="M61 4a1 1 0 0 0-1-1H4a1 1 0 0 0-1 1v56a1 1 0 0 0 1 1h56a1 1 0 0 0 1-1Zm-2 53.59L46.26 44.85V5H59ZM44.26 44.26H5V31.53h25.53a1 1 0 0 0 1-1V5h12.73ZM5 16.79h10.37l12.74 12.74H5ZM5 5h9.79v9.79H5Zm24.53 23.11L16.79 15.38V5h12.74ZM5 46.26h39.85L57.59 59H5Z" data-name="Layer 43" fill="#ffffff" opacity="1" data-original="#000000"></path></g></svg>