<svg xmlns="http://www.w3.org/2000/svg" version="1.1" xmlns:xlink="http://www.w3.org/1999/xlink" width="512" height="512" x="0" y="0" viewBox="0 0 64 64" style="enable-background:new 0 0 512 512" xml:space="preserve" class=""><g><path d="M60 12a1 1 0 0 0 0-2H33V5h27a1 1 0 0 0 0-2H32a1 1 0 0 0-1 1v27h-5V4a1 1 0 0 0-2 0v27h-5V4a1 1 0 0 0-2 0v27h-5V4a1 1 0 0 0-2 0v27H5V4a1 1 0 0 0-2 0v28a1 1 0 0 0 1 1h27v5H4a1 1 0 0 0 0 2h27v5H4a1 1 0 0 0 0 2h27v5H4a1 1 0 0 0 0 2h27v5H4a1 1 0 0 0 0 2h28a1 1 0 0 0 1-1V33h5v27a1 1 0 0 0 2 0V33h5v27a1 1 0 0 0 2 0V33h5v27a1 1 0 0 0 2 0V33h5v27a1 1 0 0 0 2 0V32a1 1 0 0 0-1-1H33v-5h27a1 1 0 0 0 0-2H33v-5h27a1 1 0 0 0 0-2H33v-5z" data-name="Layer 30" fill="#ffffff" opacity="1" data-original="#000000"></path></g></svg>